<?xml version="1.0" encoding="UTF-8" standalone="no" ?>
<!DOCTYPE svg PUBLIC "-//W3C//DTD SVG 1.1//EN" "http://www.w3.org/Graphics/SVG/1.1/DTD/svg11.dtd">
<svg xmlns="http://www.w3.org/2000/svg" xmlns:xlink="http://www.w3.org/1999/xlink" version="1.1" width="500" height="500" viewBox="0 0 500 500" xml:space="preserve">
<desc>Created with Fabric.js 3.6.3</desc>
<defs>
</defs>
<g transform="matrix(1 0 0 1 250 250)"  >
<rect style="stroke: none; stroke-width: 1; stroke-dasharray: none; stroke-linecap: butt; stroke-dashoffset: 0; stroke-linejoin: miter; stroke-miterlimit: 4; fill: rgb(10,10,10); fill-rule: nonzero; opacity: 1;"  x="-250" y="-250" rx="0" ry="0" width="500" height="500" />
</g>
<g transform="matrix(2.1262573707943115 0 0 2.1262573707943115 250 259)"  >
<g style=""   >
		<g transform="matrix(1 0 0 1 0.054516600406088855 0)"  >
<path style="stroke: none; stroke-width: 1; stroke-dasharray: none; stroke-linecap: butt; stroke-dashoffset: 0; stroke-linejoin: miter; stroke-miterlimit: 4; fill: rgb(21,91,161); fill-rule: nonzero; opacity: 1;"  transform=" translate(-67.05451660040609, -77.15)" d="M 24.4 1.8 L 0.1 106.2 c -0.2 0.9 0.2 1.8 1 2.4 l 67.3 45.7 l 64.7 -45.8 c 0.8 -0.5 1.1 -1.4 0.9 -2.3 L 111.4 1.8 C 111.1 0.8 110.1 0 109 0 H 26.8 C 25.6 0 24.6 0.8 24.4 1.8 z" stroke-linecap="round" />
</g>
		<g transform="matrix(1 0 0 1 0.0046706452687175215 -1.0125000000000028)"  >
<path style="stroke: none; stroke-width: 1; stroke-dasharray: none; stroke-linecap: butt; stroke-dashoffset: 0; stroke-linejoin: miter; stroke-miterlimit: 4; fill: rgb(255,255,255); fill-rule: nonzero; opacity: 1;"  transform=" translate(-67.00467064526872, -76.1375)" d="M 27.9 7.3 L 5.7 103 c -0.2 0.8 0.2 1.7 0.9 2.2 l 60.3 41 c 0.8 0.5 1.9 0.5 2.7 0 l 57.9 -41 c 0.7 -0.5 1 -1.3 0.8 -2.1 L 107.6 7.4 c -0.2 -1 -1.1 -1.7 -2.2 -1.7 H 30.1 C 29.1 5.7 28.2 6.4 27.9 7.3 z" stroke-linecap="round" />
</g>
		<g transform="matrix(1 0 0 1 -26.08041250361925 16.05000000000001)"  >
<path style="stroke: none; stroke-width: 1; stroke-dasharray: none; stroke-linecap: butt; stroke-dashoffset: 0; stroke-linejoin: miter; stroke-miterlimit: 4; fill: rgb(39,162,247); fill-rule: nonzero; opacity: 1;"  transform=" translate(-40.91958749638075, -93.20000000000002)" d="M 24.7 49.3 L 13.8 97.9 c -0.2 0.7 0.1 1.5 0.8 1.9 l 52.3 36.9 c 0.4 0.3 0.8 0.4 1.2 0.4 V 49.3 H 24.7 z" stroke-linecap="round" />
</g>
		<g transform="matrix(1 0 0 1 27.18085223985181 16.049999999999983)"  >
<path style="stroke: none; stroke-width: 1; stroke-dasharray: none; stroke-linecap: butt; stroke-dashoffset: 0; stroke-linejoin: miter; stroke-miterlimit: 4; fill: rgb(23,104,183); fill-rule: nonzero; opacity: 1;"  transform=" translate(-94.18085223985182, -93.19999999999999)" d="M 119.5 99.8 c 0.6 -0.4 0.9 -1.2 0.7 -1.9 l -10.1 -48.6 h -42 v 87.8 c 0.4 0 0.8 -0.1 1.1 -0.4 L 119.5 99.8 z" stroke-linecap="round" />
</g>
</g>
</g>
<g transform="matrix(1 0 0 1 249.99375 137.81136228054936)" style=""  ><path fill="#1768b7" opacity="1" d="M-67.68 6.61L-66.23 5.16L-66.23 2.21L-69.15 2.21L-69.15 3.66L-76.50 3.66L-76.50-5.17L-69.15-5.17L-69.15-3.70L-66.23-3.70L-66.23-6.63L-67.68-8.12L-77.99-8.12L-79.44-6.63L-79.44 5.16L-77.99 6.61Z"/><path fill="#1768b7" opacity="1" d="M-60.29-0.73L-60.29-2.21L-57.37-5.17L-52.95-5.17L-52.95-0.73ZM-60.29 6.61L-60.29 2.21L-52.95 2.21L-52.95 6.61L-50.02 6.61L-50.02-8.12L-58.84-8.12L-63.24-3.68L-63.24 6.61Z"/><path fill="#1768b7" opacity="1" d="M-43.67-0.73L-43.67-5.17L-36.32-5.17L-36.32-0.73ZM-33.40 6.61L-33.40 3.66L-34.85 2.21L-33.40 0.74L-33.40-6.63L-34.85-8.12L-46.61-8.12L-46.61 6.61L-43.67 6.61L-43.67 2.21L-39.27 2.21L-37.80 3.66L-36.32 5.16L-36.32 6.61Z"/><path fill="#1768b7" opacity="1" d="M-17.49 6.61L-17.49 3.66L-27.04 3.66L-27.04 0.74L-18.22 0.74L-18.22-2.21L-27.04-2.21L-27.04-5.17L-17.49-5.17L-17.49-8.12L-29.99-8.12L-29.99 6.61Z"/><path fill="#1768b7" opacity="1" d="M-1.79 6.61L-1.79 3.66L-11.34 3.66L-11.34 0.74L-2.53 0.74L-2.53-2.21L-11.34-2.21L-11.34-5.17L-1.79-5.17L-1.79-8.12L-14.29-8.12L-14.29 6.61Z"/><path fill="#1768b7" opacity="1" d="M4.36-0.73L4.36-5.17L11.70-5.17L11.70-0.73ZM14.63 6.61L14.63 3.66L13.17 2.21L14.63 0.74L14.63-6.63L13.17-8.12L1.41-8.12L1.41 6.61L4.36 6.61L4.36 2.21L8.75 2.21L10.23 3.66L11.70 5.16L11.70 6.61Z"/><path fill="#1768b7" opacity="1" d="M20.98-0.73L20.98-5.17L28.33-5.17L28.33-0.73ZM20.98 6.61L20.98 2.21L29.80 2.21L31.25 0.74L31.25-6.63L29.80-8.12L18.03-8.12L18.03 6.61Z"/><path fill="#1768b7" opacity="1" d="M37.18-0.73L37.18-2.21L40.11-5.17L44.53-5.17L44.53-0.73ZM37.18 6.61L37.18 2.21L44.53 2.21L44.53 6.61L47.45 6.61L47.45-8.12L38.64-8.12L34.24-3.68L34.24 6.61Z"/><path fill="#1768b7" opacity="1" d="M58.33 6.61L58.33-5.17L63.45-5.17L63.45-8.12L50.23-8.12L50.23-5.17L55.39-5.17L55.39 6.61Z"/><path fill="#1768b7" opacity="1" d="M69.17 6.61L69.17 0.74L76.52 0.74L76.52 6.61L79.44 6.61L79.44-8.12L76.52-8.12L76.52-2.21L69.17-2.21L69.17-8.12L66.23-8.12L66.23 6.61Z"/></g><g transform="matrix(1.72420780986052 0 0 1.6092223524814244 250 161.58616647127786)"  >
<path style="stroke: none; stroke-width: 1; stroke-dasharray: none; stroke-linecap: butt; stroke-dashoffset: 0; stroke-linejoin: miter; stroke-miterlimit: 4; fill: rgb(39,162,247); fill-rule: nonzero; opacity: 1;"  transform=" translate(-49.95, -50)" d="M 91.7 49 H 8.3 c -0.6 0 -1 0.4 -1 1 s 0.4 1 1 1 h 83.3 c 0.6 0 1 -0.4 1 -1 S 92.2 49 91.7 49 z" stroke-linecap="round" />
</g>
<g transform="matrix(1.079977752458299 0 0 1.079977752458299 250 280)"  >
<path style="stroke: none; stroke-width: 0; stroke-dasharray: none; stroke-linecap: butt; stroke-dashoffset: 0; stroke-linejoin: miter; stroke-miterlimit: 4; fill: rgb(255,255,255); fill-rule: nonzero; opacity: 1;"  transform=" translate(-49.999784999999996, -50.00025000000001)" d="m 87.777 56.297 c 0.49219 0 0.96484 -0.19531 1.3086 -0.54297 l 6.668 -6.668 c 0.34766 -0.34766 0.54297 -0.82031 0.54297 -1.3086 c 0 -0.49219 -0.19531 -0.96484 -0.54297 -1.3086 l -6.668 -6.668 c -0.34766 -0.34766 -0.82031 -0.54297 -1.3086 -0.54297 h -24.445 c -1.0234 0 -1.8516 0.82813 -1.8516 1.8516 s 0.82812 1.8516 1.8516 1.8516 h 23.68 l 4.8164 4.8164 l -4.8164 4.8164 h -28.492 v -11.48 c 0 -1.0234 -0.82812 -1.8516 -1.8516 -1.8516 c -1.0234 0 -1.8516 0.82812 -1.8516 1.8516 v 13.332 c 0 1.0234 0.82812 1.8516 1.8516 1.8516 h 11.48 v 2.9648 h -7.0352 c -0.49219 0 -0.96484 0.19531 -1.3086 0.54297 l -6.668 6.668 c -0.72266 0.72266 -0.72266 1.8945 0 2.6172 l 6.668 6.668 c 0.34766 0.34766 0.82031 0.54297 1.3086 0.54297 h 7.0352 v 7.6367 c -1.9961 -0.33594 -3.9414 0.35938 -5.6914 2.082 c -4.375 0.65625 -6.2148 3.7578 -7.1641 6.5742 h -0.84766 c -1.0234 0 -1.8516 0.82812 -1.8516 1.8516 c 0 1.0234 0.82812 1.8516 1.8516 1.8516 h 2.2148 h 0.007813 h 0.003906 h 37.77 c 1.0234 0 1.8516 -0.82812 1.8516 -1.8516 c 0 -1.0234 -0.82812 -1.8516 -1.8516 -1.8516 h -0.53125 c -0.5 -3.9258 -1.9766 -6.6836 -4.3203 -8.0312 c -1.418 -0.81641 -3.75 -1.4297 -7.0859 -0.066406 c -0.55078 -0.39062 -1.1484 -0.67969 -1.7695 -0.92969 v -2.457 c 0 -1.0234 -0.82812 -1.8516 -1.8516 -1.8516 c -1.0234 0 -1.8516 0.82813 -1.8516 1.8516 v 1.7539 c -1.7344 -0.027343 -3.5156 0.29688 -5.1836 0.89844 v -7.4648 h 20.371 c 1.0234 0 1.8516 -0.82812 1.8516 -1.8516 v -13.332 c 0 -1.0234 -0.82812 -1.8516 -1.8516 -1.8516 h -11.48 v -2.9648 z m -15.926 0 h 5.1836 v 2.9648 h -5.1836 z m 9.0625 31.68 c 0.57031 0.56641 1.4375 0.70313 2.1523 0.33594 c 1.3555 -0.69922 3.2734 -1.3594 4.6797 -0.54297 c 1.1875 0.68359 2.0312 2.4062 2.4141 4.8203 h -30.902 c 0.91016 -1.9492 2.1875 -2.8008 4.2266 -2.9688 c 0.47266 -0.039063 0.91406 -0.25781 1.2305 -0.61328 c 1.6914 -1.8945 2.9258 -1.6914 4.2539 -0.80078 c 0.066406 0.042969 0.14062 0.066407 0.21094 0.10156 c 0.054687 0.027344 0.10547 0.058594 0.16797 0.078125 c 0.20312 0.074219 0.41406 0.125 0.62891 0.12891 c 0.007813 0 0.011719 0.003906 0.019532 0.003906 c 0.027344 0 0.050781 -0.015625 0.078125 -0.015625 c 0.1875 -0.007812 0.36719 -0.046875 0.54688 -0.10938 c 0.0625 -0.023437 0.12109 -0.046875 0.17969 -0.074219 c 0.050781 -0.023437 0.10547 -0.035156 0.14844 -0.0625 c 3.1367 -1.8906 7.7148 -2.5078 9.9609 -0.27344 z m 9.457 -25.016 v 9.6289 h -28.492 l -4.8164 -4.8164 l 4.8164 -4.8164 h 28.492 z m -78.148 -59.258 c -4.6992 0 -8.5195 3.8203 -8.5195 8.5195 c 0 4.0586 2.8594 7.4531 6.668 8.3008 v 7.25 c 0 1.0234 0.82812 1.8516 1.8516 1.8516 c 1.0234 0 1.8516 -0.82812 1.8516 -1.8516 v -7.25 c 3.8086 -0.85156 6.668 -4.2422 6.668 -8.3008 c 0 -4.6992 -3.8203 -8.5195 -8.5195 -8.5195 z m 0 13.332 c -2.6562 0 -4.8164 -2.1602 -4.8164 -4.8164 c 0 -2.6523 2.1602 -4.8164 4.8164 -4.8164 c 2.6523 0 4.8164 2.1602 4.8164 4.8164 c 0 2.6523 -2.1602 4.8164 -4.8164 4.8164 z m -0.59766 32.445 c -1.3125 1.3203 -2.0586 3.1445 -2.0469 5 c 0.023437 3.8594 3.1797 6.9961 7.0312 6.9961 h 16.723 c 5.3086 0 9.6289 4.3203 9.6289 9.6289 c 0 2.5352 -1.0273 5.0156 -2.8203 6.8086 c -1.8203 1.8203 -4.2383 2.8203 -6.8086 2.8203 h -17.883 c -1.582 0 -3.0703 0.61719 -4.1914 1.7344 c -1.1172 1.1172 -1.7344 2.6055 -1.7344 4.1914 c 0 3.2695 2.6602 5.9258 5.9258 5.9258 h 30.105 c 1.0234 0 1.8516 0.82812 1.8516 1.8516 s -0.82812 1.8516 -1.8516 1.8516 l -30.102 0.007813 c -5.3086 0 -9.6289 -4.3203 -9.6289 -9.6289 c 0 -2.5703 1 -4.9922 2.8203 -6.8086 c 1.8203 -1.8203 4.2383 -2.8203 6.8086 -2.8203 h 17.883 c 1.582 0 3.0703 -0.61719 4.1914 -1.7383 c 1.1055 -1.1055 1.7383 -2.6289 1.7383 -4.1914 c 0 -3.2656 -2.6602 -5.9258 -5.9258 -5.9258 h -16.723 c -5.8867 0 -10.699 -4.7891 -10.734 -10.676 c -0.015624 -2.8438 1.1211 -5.625 3.125 -7.6406 c 2 -2.0117 4.7773 -3.168 7.6172 -3.168 h 24.496 c 3.8789 0 7.0352 -3.1562 7.0352 -7.0352 c 0 -1.8789 -0.73438 -3.6445 -2.0625 -4.9766 c -1.3281 -1.3281 -3.0977 -2.0625 -4.9766 -2.0625 h -20 c -1.0234 0 -1.8516 -0.82812 -1.8516 -1.8516 c 0 -1.0234 0.82812 -1.8516 1.8516 -1.8516 h 20 c 2.8672 0 5.5664 1.1172 7.5938 3.1445 c 2.0312 2.0312 3.1445 4.7266 3.1445 7.5977 c 0 5.9219 -4.8203 10.742 -10.742 10.742 h -24.496 c -1.8594 0 -3.6797 0.75391 -4.9922 2.0742 z" stroke-linecap="round" />
</g>
</svg>